HIERARCHY
ROOT Hips
{
	OFFSET -335.845001 -574.368103 89.378365
	CHANNELS 6 Xposition Yposition Zposition Zrotation Yrotation Xrotation
	JOINT Spine
	{
		OFFSET 0.000000 2.080078 8.814247
		CHANNELS 6 Xposition Yposition Zposition Zrotation Yrotation Xrotation
		JOINT Spine1
		{
			OFFSET 0.000000 0.000000 8.844139
			CHANNELS 6 Xposition Yposition Zposition Zrotation Yrotation Xrotation
			JOINT Spine2
			{
				OFFSET 0.000000 0.000000 11.682266
				CHANNELS 6 Xposition Yposition Zposition Zrotation Yrotation Xrotation
				JOINT Spine3
				{
					OFFSET 0.000000 0.000000 11.746696
					CHANNELS 6 Xposition Yposition Zposition Zrotation Yrotation Xrotation
					JOINT Neck
					{
						OFFSET 0.000000 0.000000 17.658264
						CHANNELS 6 Xposition Yposition Zposition Zrotation Yrotation Xrotation
						JOINT Neck1
						{
							OFFSET 0.000000 0.000000 5.101517
							CHANNELS 6 Xposition Yposition Zposition Zrotation Yrotation Xrotation
							JOINT Head
							{
								OFFSET 0.000000 0.000000 5.101517
								CHANNELS 6 Xposition Yposition Zposition Zrotation Yrotation Xrotation
								JOINT HeadEnd
								{
									OFFSET 0.000000 0.000000 11.655090
									CHANNELS 6 Xposition Yposition Zposition Zrotation Yrotation Xrotation
									End Site
									{
										OFFSET 0.000000 0.000000 0.100006
									}
								}
							}
						}
					}
					JOINT RightShoulder
					{
						OFFSET -2.625397 0.000000 11.175217
						CHANNELS 6 Xposition Yposition Zposition Zrotation Yrotation Xrotation
						JOINT RightArm
						{
							OFFSET 0.000000 0.000000 10.434708
							CHANNELS 6 Xposition Yposition Zposition Zrotation Yrotation Xrotation
							JOINT RightForeArm
							{
								OFFSET 0.000000 0.000000 29.628418
								CHANNELS 6 Xposition Yposition Zposition Zrotation Yrotation Xrotation
								JOINT RightHand
								{
									OFFSET 0.000000 0.000000 22.857605
									CHANNELS 6 Xposition Yposition Zposition Zrotation Yrotation Xrotation
									JOINT RightHandThumb1
									{
										OFFSET -2.867310 -2.944275 3.959564
										CHANNELS 6 Xposition Yposition Zposition Zrotation Yrotation Xrotation
										JOINT RightHandThumb2
										{
											OFFSET 0.000000 0.000000 3.350403
											CHANNELS 6 Xposition Yposition Zposition Zrotation Yrotation Xrotation
											JOINT RightHandThumb3
											{
												OFFSET 0.000000 0.000000 3.756516
												CHANNELS 6 Xposition Yposition Zposition Zrotation Yrotation Xrotation
												JOINT RightHandThumb4
												{
													OFFSET 0.000000 0.000000 3.147339
													CHANNELS 6 Xposition Yposition Zposition Zrotation Yrotation Xrotation
													End Site
													{
														OFFSET 0.000000 0.000000 0.100006
													}
												}
											}
										}
									}
									JOINT RightHandIndex1
									{
										OFFSET -0.086761 -2.345276 10.030899
										CHANNELS 6 Xposition Yposition Zposition Zrotation Yrotation Xrotation
										JOINT RightHandIndex2
										{
											OFFSET 0.000000 0.000000 4.061096
											CHANNELS 6 Xposition Yposition Zposition Zrotation Yrotation Xrotation
											JOINT RightHandIndex3
											{
												OFFSET 0.000000 0.000000 3.248871
												CHANNELS 6 Xposition Yposition Zposition Zrotation Yrotation Xrotation
												JOINT RightHandIndex4
												{
													OFFSET 0.000000 0.000000 2.639709
													CHANNELS 6 Xposition Yposition Zposition Zrotation Yrotation Xrotation
													End Site
													{
														OFFSET 0.000000 0.000000 0.100006
													}
												}
											}
										}
									}
									JOINT RightHandMiddle1
									{
										OFFSET 0.104095 -0.006775 9.502945
										CHANNELS 6 Xposition Yposition Zposition Zrotation Yrotation Xrotation
										JOINT RightHandMiddle2
										{
											OFFSET 0.000000 0.000000 4.568726
											CHANNELS 6 Xposition Yposition Zposition Zrotation Yrotation Xrotation
											JOINT RightHandMiddle3
											{
												OFFSET 0.000000 0.000000 3.654984
												CHANNELS 6 Xposition Yposition Zposition Zrotation Yrotation Xrotation
												JOINT RightHandMiddle4
												{
													OFFSET 0.000000 0.000000 2.741241
													CHANNELS 6 Xposition Yposition Zposition Zrotation Yrotation Xrotation
													End Site
													{
														OFFSET 0.000000 0.000000 0.100006
													}
												}
											}
										}
									}
									JOINT RightHandRing1
									{
										OFFSET 0.086761 2.267456 8.921707
										CHANNELS 6 Xposition Yposition Zposition Zrotation Yrotation Xrotation
										JOINT RightHandRing2
										{
											OFFSET 0.000000 0.000000 4.061096
											CHANNELS 6 Xposition Yposition Zposition Zrotation Yrotation Xrotation
											JOINT RightHandRing3
											{
												OFFSET 0.000000 0.000000 3.654984
												CHANNELS 6 Xposition Yposition Zposition Zrotation Yrotation Xrotation
												JOINT RightHandRing4
												{
													OFFSET 0.000000 0.000000 2.741241
													CHANNELS 6 Xposition Yposition Zposition Zrotation Yrotation Xrotation
													End Site
													{
														OFFSET 0.000000 0.000000 0.100006
													}
												}
											}
										}
									}
									JOINT RightHandPinky1
									{
										OFFSET -0.173492 4.467224 7.976990
										CHANNELS 6 Xposition Yposition Zposition Zrotation Yrotation Xrotation
										JOINT RightHandPinky2
										{
											OFFSET 0.000000 0.000000 3.350403
											CHANNELS 6 Xposition Yposition Zposition Zrotation Yrotation Xrotation
											JOINT RightHandPinky3
											{
												OFFSET 0.000000 0.000000 2.842758
												CHANNELS 6 Xposition Yposition Zposition Zrotation Yrotation Xrotation
												JOINT RightHandPinky4
												{
													OFFSET 0.000000 0.000000 2.639709
													CHANNELS 6 Xposition Yposition Zposition Zrotation Yrotation Xrotation
													End Site
													{
														OFFSET 0.000000 0.000000 0.100006
													}
												}
											}
										}
									}
									JOINT RightForeArmEnd
									{
										OFFSET 0.000000 0.000000 0.000000
										CHANNELS 6 Xposition Yposition Zposition Zrotation Yrotation Xrotation
										End Site
										{
											OFFSET 0.000000 0.000000 0.100006
										}
									}
								}
								JOINT RightArmEnd
								{
									OFFSET 0.000000 0.000000 0.000000
									CHANNELS 6 Xposition Yposition Zposition Zrotation Yrotation Xrotation
									End Site
									{
										OFFSET 0.000000 0.000000 0.100006
									}
								}
							}
						}
					}
					JOINT LeftShoulder
					{
						OFFSET 2.625397 0.000000 11.175217
						CHANNELS 6 Xposition Yposition Zposition Zrotation Yrotation Xrotation
						JOINT LeftArm
						{
							OFFSET 0.000000 0.000000 10.813629
							CHANNELS 6 Xposition Yposition Zposition Zrotation Yrotation Xrotation
							JOINT LeftForeArm
							{
								OFFSET 0.000000 0.000000 28.724777
								CHANNELS 6 Xposition Yposition Zposition Zrotation Yrotation Xrotation
								JOINT LeftHand
								{
									OFFSET 0.644379 0.328857 25.716171
									CHANNELS 6 Xposition Yposition Zposition Zrotation Yrotation Xrotation
									JOINT LeftHandThumb1
									{
										OFFSET 2.867310 -2.944275 3.959564
										CHANNELS 6 Xposition Yposition Zposition Zrotation Yrotation Xrotation
										JOINT LeftHandThumb2
										{
											OFFSET 0.000000 0.000000 3.350403
											CHANNELS 6 Xposition Yposition Zposition Zrotation Yrotation Xrotation
											JOINT LeftHandThumb3
											{
												OFFSET 0.000000 0.000000 3.756516
												CHANNELS 6 Xposition Yposition Zposition Zrotation Yrotation Xrotation
												JOINT LeftHandThumb4
												{
													OFFSET 0.000000 0.000000 3.100006
													CHANNELS 6 Xposition Yposition Zposition Zrotation Yrotation Xrotation
													End Site
													{
														OFFSET 0.000000 0.000000 0.100006
													}
												}
											}
										}
									}
									JOINT LeftHandIndex1
									{
										OFFSET 0.086761 -2.345276 10.030899
										CHANNELS 6 Xposition Yposition Zposition Zrotation Yrotation Xrotation
										JOINT LeftHandIndex2
										{
											OFFSET 0.000000 0.000000 4.061096
											CHANNELS 6 Xposition Yposition Zposition Zrotation Yrotation Xrotation
											JOINT LeftHandIndex3
											{
												OFFSET 0.000000 0.000000 3.248871
												CHANNELS 6 Xposition Yposition Zposition Zrotation Yrotation Xrotation
												JOINT LeftHandIndex4
												{
													OFFSET 0.000000 0.000000 2.639709
													CHANNELS 6 Xposition Yposition Zposition Zrotation Yrotation Xrotation
													End Site
													{
														OFFSET 0.000000 0.000000 0.100006
													}
												}
											}
										}
									}
									JOINT LeftHandMiddle1
									{
										OFFSET -0.104095 -0.006775 9.502945
										CHANNELS 6 Xposition Yposition Zposition Zrotation Yrotation Xrotation
										JOINT LeftHandMiddle2
										{
											OFFSET 0.000000 0.000000 4.568726
											CHANNELS 6 Xposition Yposition Zposition Zrotation Yrotation Xrotation
											JOINT LeftHandMiddle3
											{
												OFFSET 0.000000 0.000000 3.654984
												CHANNELS 6 Xposition Yposition Zposition Zrotation Yrotation Xrotation
												JOINT LeftHandMiddle4
												{
													OFFSET 0.000000 0.000000 2.741241
													CHANNELS 6 Xposition Yposition Zposition Zrotation Yrotation Xrotation
													End Site
													{
														OFFSET 0.000000 0.000000 0.100006
													}
												}
											}
										}
									}
									JOINT LeftHandRing1
									{
										OFFSET -0.086761 2.267456 8.921707
										CHANNELS 6 Xposition Yposition Zposition Zrotation Yrotation Xrotation
										JOINT LeftHandRing2
										{
											OFFSET 0.000000 0.000000 4.061096
											CHANNELS 6 Xposition Yposition Zposition Zrotation Yrotation Xrotation
											JOINT LeftHandRing3
											{
												OFFSET 0.000000 0.000000 3.654984
												CHANNELS 6 Xposition Yposition Zposition Zrotation Yrotation Xrotation
												JOINT LeftHandRing4
												{
													OFFSET 0.000000 0.000000 2.741241
													CHANNELS 6 Xposition Yposition Zposition Zrotation Yrotation Xrotation
													End Site
													{
														OFFSET 0.000000 0.000000 0.100006
													}
												}
											}
										}
									}
									JOINT LeftHandPinky1
									{
										OFFSET 0.173492 4.467224 7.976990
										CHANNELS 6 Xposition Yposition Zposition Zrotation Yrotation Xrotation
										JOINT LeftHandPinky2
										{
											OFFSET 0.000000 0.000000 3.350403
											CHANNELS 6 Xposition Yposition Zposition Zrotation Yrotation Xrotation
											JOINT LeftHandPinky3
											{
												OFFSET 0.000000 0.000000 2.842758
												CHANNELS 6 Xposition Yposition Zposition Zrotation Yrotation Xrotation
												JOINT LeftHandPinky4
												{
													OFFSET 0.000000 0.000000 2.639709
													CHANNELS 6 Xposition Yposition Zposition Zrotation Yrotation Xrotation
													End Site
													{
														OFFSET 0.000000 0.000000 0.100006
													}
												}
											}
										}
									}
									JOINT LeftForeArmEnd
									{
										OFFSET 0.000000 0.000000 0.000000
										CHANNELS 6 Xposition Yposition Zposition Zrotation Yrotation Xrotation
										End Site
										{
											OFFSET 0.000000 0.000000 0.100006
										}
									}
								}
								JOINT LeftArmEnd
								{
									OFFSET 0.000000 0.000000 0.000000
									CHANNELS 6 Xposition Yposition Zposition Zrotation Yrotation Xrotation
									End Site
									{
										OFFSET 0.000000 0.000000 0.100006
									}
								}
							}
						}
					}
				}
			}
		}
	}
	JOINT RightUpLeg
	{
		OFFSET -11.289948 0.000000 0.000000
		CHANNELS 6 Xposition Yposition Zposition Zrotation Yrotation Xrotation
		JOINT RightLeg
		{
			OFFSET 0.000000 0.000000 -38.200329
			CHANNELS 6 Xposition Yposition Zposition Zrotation Yrotation Xrotation
			JOINT RightFoot
			{
				OFFSET 0.000000 0.000000 -39.900856
				CHANNELS 6 Xposition Yposition Zposition Zrotation Yrotation Xrotation
				JOINT RightToeBase
				{
					OFFSET 0.000000 -15.261658 0.000002
					CHANNELS 6 Xposition Yposition Zposition Zrotation Yrotation Xrotation
					JOINT RightToeBaseEnd
					{
						OFFSET 0.000000 -7.370728 0.000000
						CHANNELS 6 Xposition Yposition Zposition Zrotation Yrotation Xrotation
						End Site
						{
							OFFSET 0.000000 0.000000 0.100000
						}
					}
				}
				JOINT RightLegEnd
				{
					OFFSET 0.000000 0.000000 0.000000
					CHANNELS 6 Xposition Yposition Zposition Zrotation Yrotation Xrotation
					End Site
					{
						OFFSET 0.000000 0.000000 0.100000
					}
				}
			}
			JOINT RightUpLegEnd
			{
				OFFSET 0.000000 0.000000 0.000000
				CHANNELS 6 Xposition Yposition Zposition Zrotation Yrotation Xrotation
				End Site
				{
					OFFSET 0.000000 0.000000 0.099998
				}
			}
		}
	}
	JOINT LeftUpLeg
	{
		OFFSET 11.315674 0.000000 0.000000
		CHANNELS 6 Xposition Yposition Zposition Zrotation Yrotation Xrotation
		JOINT LeftLeg
		{
			OFFSET 0.000000 0.000000 -38.200329
			CHANNELS 6 Xposition Yposition Zposition Zrotation Yrotation Xrotation
			JOINT LeftFoot
			{
				OFFSET 0.000000 0.000000 -39.900856
				CHANNELS 6 Xposition Yposition Zposition Zrotation Yrotation Xrotation
				JOINT LeftToeBase
				{
					OFFSET 0.000000 -15.261658 0.000002
					CHANNELS 6 Xposition Yposition Zposition Zrotation Yrotation Xrotation
					JOINT LeftToeBaseEnd
					{
						OFFSET 0.000000 -7.539978 0.000000
						CHANNELS 6 Xposition Yposition Zposition Zrotation Yrotation Xrotation
						End Site
						{
							OFFSET 0.000000 0.000000 0.100000
						}
					}
				}
				JOINT LeftLegEnd
				{
					OFFSET 0.000000 0.000000 0.000000
					CHANNELS 6 Xposition Yposition Zposition Zrotation Yrotation Xrotation
					End Site
					{
						OFFSET 0.000000 0.000000 0.100000
					}
				}
			}
			JOINT LeftUpLegEnd
			{
				OFFSET 0.000000 0.000000 0.000000
				CHANNELS 6 Xposition Yposition Zposition Zrotation Yrotation Xrotation
				End Site
				{
					OFFSET 0.000000 0.000000 0.099998
				}
			}
		}
	}
}
MOTION
Frames: 2
Frame Time: 0.016667
-31.852142 -42.857605 88.691345 21.600110 1.605057 1.180267 -0.000003 2.080063 8.814255 -0.036743 1.337686 6.206700 0.000006 -0.000017 8.844152 0.882665 4.943108 4.823833 0.000004 -0.000012 11.682283 -15.508460 -1.808045 -0.046687 0.000019 0.000028 11.746680 -6.102725 -2.381011 -1.630261 -0.000034 -0.000020 17.658308 -8.354355 -24.168421 3.362959 0.000005 -0.000018 5.101543 3.359773 -2.484055 -4.760780 0.000015 -0.000005 5.101502 -0.573226 -0.723729 -15.401528 -0.000001 0.000004 11.655071 -0.000000 0.000001 -0.000001 -2.625422 -0.000018 11.175242 4.189203 -86.625814 -0.080532 0.000000 -0.000010 10.434700 7.971166 -57.218387 -18.435522 -0.000002 0.000065 29.628422 28.567942 -0.846428 22.128165 0.000015 -0.000004 22.857594 -6.094430 41.561872 7.146339 -2.867302 -2.944321 3.959587 31.831366 -15.890539 53.646867 0.000008 -0.000011 3.350391 -9.650573 7.049982 -17.762098 0.000010 0.000000 3.756514 -6.465087 5.219232 -12.193489 0.000026 -0.000088 3.147337 0.000004 0.000001 0.000001 -0.086740 -2.345272 10.030912 -8.596189 0.197215 10.873003 -0.000028 -0.000034 4.061105 0.497537 -0.985996 0.138757 -0.000008 -0.000048 3.248898 -0.005018 -0.987562 0.138839 -0.000030 0.000060 2.639712 0.000000 0.000000 -0.000000 0.104100 -0.006865 9.502952 -3.803375 -1.406145 10.803155 -0.000016 -0.000030 4.568694 0.497211 -1.461705 0.076669 -0.000055 -0.000016 3.655008 -0.001689 -1.461689 0.076637 -0.000030 0.000005 2.741232 -0.000000 0.000000 -0.000000 0.086758 2.267477 8.921700 3.558834 -5.826980 10.741488 -0.000004 -0.000069 4.061111 -0.993541 -3.527145 -0.216005 -0.000008 -0.000100 3.654999 0.007003 -3.527476 -0.215989 -0.000031 0.000056 2.741233 0.000001 0.000001 -0.000000 -0.173515 4.467129 7.977013 11.750114 -8.878629 8.609850 -0.000002 -0.000050 3.350410 -1.962533 -4.692796 -0.914276 -0.000024 -0.000079 2.842750 0.037461 -4.692801 -0.914270 -0.000038 -0.000052 2.639713 -0.000002 0.000000 -0.000000 -0.000011 0.000001 0.000027 -0.000000 -0.000000 0.000000 -0.000008 0.000010 -0.000009 -0.000001 0.000003 0.000001 2.625355 0.000012 11.175230 -12.893067 88.672289 0.128415 -0.000015 -0.000015 10.813641 20.182328 65.655364 39.466694 -0.000004 0.000008 28.724787 -8.439111 -0.504410 45.812975 0.644363 0.328850 25.716139 15.968931 -56.308206 3.254008 2.867271 -2.944321 3.959511 -32.415969 13.591544 57.445627 0.000011 -0.000051 3.350441 4.708403 -4.020494 -9.020708 -0.000038 0.000010 3.756517 3.201720 -2.871522 -6.226877 -0.000024 -0.000000 3.100012 0.000000 0.000002 0.000000 0.086731 -2.345261 10.030861 -11.237524 -13.161193 17.056980 -0.000076 -0.000023 4.061110 0.530388 -0.000006 0.000816 -0.000059 -0.000026 3.248892 0.029661 -0.000000 0.000804 -0.000025 -0.000015 2.639738 0.000002 -0.000000 -0.000002 -0.104134 -0.006756 9.502945 -5.633940 -11.244481 13.940030 0.000017 -0.000058 4.568738 0.509417 0.000103 0.034951 0.000010 -0.000044 3.654977 0.008121 -0.000003 0.030871 -0.000036 -0.000001 2.741240 -0.000000 0.000002 -0.000002 -0.086809 2.267485 8.921688 3.520547 -6.052182 10.680755 -0.000017 -0.000023 4.061094 -1.006864 -0.000144 -0.023973 -0.000045 0.000011 3.654976 -0.021103 -0.000013 -0.018691 -0.000004 -0.000000 2.741256 0.000000 -0.000000 -0.000000 0.173480 4.467182 7.976968 12.833808 -2.092394 9.302987 -0.000032 0.000010 3.350410 -2.004221 0.030597 0.005949 -0.000050 0.000024 2.842769 -0.006443 0.030578 0.005944 -0.000028 0.000000 2.639729 -0.000000 -0.000000 -0.000001 -0.000012 0.000005 -0.000007 -0.000001 0.000002 0.000006 -0.000015 0.000010 0.000018 -0.000002 -0.000000 0.000001 -11.289940 -0.000009 0.000002 -13.387326 3.120186 -6.312057 0.000004 0.000070 -38.200298 -1.232230 0.552263 24.137006 -0.000015 -0.000074 -39.900867 -9.176544 -5.302770 20.231396 -0.000010 -15.261662 0.000022 0.754266 1.384953 -26.725075 -0.000002 -7.370667 -0.000000 -0.000000 0.000000 -0.000000 0.000000 0.000061 0.000004 0.000000 0.000000 0.000002 -0.000005 0.000063 -0.000002 -0.000000 0.000000 0.000000 11.315729 -0.000046 0.000019 -21.526251 -7.961053 -8.225237 0.000028 0.000074 -38.200287 0.978446 -0.704908 35.766330 0.000041 0.000003 -39.900848 2.015137 4.142168 17.546577 0.000004 -15.261698 0.000003 0.201852 -1.631597 -27.040951 -0.000030 -7.539975 0.000000 -0.000000 -0.000000 0.000000 0.000000 -0.000001 -0.000002 0.000000 0.000000 -0.000007 0.000030 -0.000002 0.000010 0.000001 -0.000000 0.000000 
-32.831207 -42.905945 86.222893 21.488211 3.459487 0.456538 0.000006 2.080080 8.814256 0.005993 0.333597 7.298436 -0.000009 0.000025 8.844145 0.599240 3.745616 4.605852 0.000012 0.000005 11.682274 -14.102465 -1.565898 0.792332 -0.000009 0.000022 11.746711 -5.530583 -2.569038 -1.274424 -0.000004 -0.000020 17.658249 -9.535742 -24.795035 1.351807 0.000002 -0.000022 5.101504 2.376679 -2.456035 -5.984790 -0.000037 -0.000001 5.101521 -0.295819 -1.380010 -15.979747 0.000004 0.000000 11.655068 0.000000 0.000003 -0.000001 -2.625395 0.000018 11.175200 4.628406 -86.155310 -0.066021 0.000008 0.000013 10.434692 13.209232 -59.361393 -20.674610 -0.000010 0.000031 29.628429 28.198574 -0.825655 21.003825 -0.000038 0.000068 22.857590 -3.517714 40.990018 7.373507 -2.867332 -2.944260 3.959518 31.863826 -15.721414 53.915881 0.000000 0.000000 3.350414 -9.281730 6.858959 -17.127630 -0.000006 0.000023 3.756477 -6.223684 5.062942 -11.762306 0.000005 -0.000070 3.147340 0.000002 0.000000 0.000000 -0.086758 -2.345253 10.030888 -8.393286 1.352763 9.781411 -0.000014 -0.000073 4.061123 0.499750 -0.070805 0.009955 -0.000007 -0.000088 3.248896 -0.003090 -0.070799 0.009959 -0.000024 0.000005 2.639687 -0.000000 0.000000 -0.000001 0.104086 -0.006849 9.502932 -3.552803 0.006841 9.712046 -0.000036 -0.000030 4.568715 0.498920 -0.414005 0.021705 -0.000052 0.000021 3.654989 0.000101 -0.414003 0.021691 -0.000042 -0.000013 2.741252 0.000002 0.000000 0.000001 0.086743 2.267429 8.921673 3.887832 -3.910055 9.617950 -0.000003 -0.000037 4.061092 -0.996642 -2.233337 -0.136663 -0.000026 -0.000084 3.654996 0.004740 -2.232721 -0.136777 -0.000032 -0.000001 2.741250 0.000000 -0.000000 0.000001 -0.173500 4.467129 7.976986 12.082375 -6.668686 7.624729 0.000037 -0.000069 3.350416 -1.981026 -3.342288 -0.650425 -0.000026 -0.000069 2.842753 0.018979 -3.342306 -0.650431 -0.000042 -0.000080 2.639730 0.000002 -0.000001 0.000001 0.000011 0.000006 -0.000015 -0.000001 0.000000 0.000000 -0.000044 0.000009 -0.000000 -0.000002 0.000003 -0.000000 2.625381 0.000006 11.175208 -13.084377 87.791966 0.069478 -0.000023 0.000034 10.813629 23.601497 67.122468 42.083500 0.000009 -0.000002 28.724831 -4.555627 -0.479404 40.075933 0.644333 0.328876 25.716135 11.384979 -53.537246 2.537709 2.867310 -2.944290 3.959534 -32.415955 13.591548 57.445682 -0.000004 -0.000032 3.350451 4.708416 -4.020482 -9.020884 -0.000062 -0.000002 3.756514 3.201702 -2.871519 -6.226748 -0.000041 -0.000005 3.100015 0.000001 0.000001 -0.000000 0.086739 -2.345268 10.030922 -11.309638 -13.457713 16.796682 -0.000026 -0.000022 4.061095 0.531243 0.028195 0.001120 -0.000026 0.000014 3.248880 0.030560 -0.015641 0.000761 -0.000033 0.000022 2.639727 -0.000003 -0.000002 -0.000001 -0.104095 -0.006779 9.502975 -5.733276 -11.748215 13.654159 -0.000009 -0.000081 4.568748 0.509974 -0.055816 0.035739 -0.000037 -0.000036 3.655004 0.008619 0.031123 0.032254 -0.000031 0.000002 2.741242 -0.000001 0.000001 0.000000 -0.086824 2.267454 8.921711 3.357699 -7.014945 10.115765 -0.000040 -0.000005 4.061113 -1.008939 -0.000152 -0.028208 -0.000028 0.000011 3.654989 -0.023870 -0.000003 -0.022191 -0.000024 0.000003 2.741247 0.000000 0.000001 0.000000 0.173533 4.467140 7.977001 12.649877 -3.157859 8.335658 -0.000057 0.000014 3.350385 -2.005677 -0.000006 0.001830 -0.000026 0.000009 2.842766 -0.010114 0.000006 0.001489 -0.000036 -0.000011 2.639724 -0.000000 -0.000000 -0.000000 -0.000005 -0.000017 0.000044 0.000003 -0.000003 0.000000 -0.000018 0.000023 0.000002 -0.000003 -0.000002 0.000002 -11.289937 -0.000003 -0.000015 -12.866034 0.633680 -8.111225 -0.000003 0.000008 -38.200283 -0.845484 0.509009 31.046970 0.000003 -0.000058 -39.900856 -9.962237 -5.494320 11.754768 -0.000004 -15.261801 0.000031 1.157937 1.518686 -22.379965 -0.000002 -7.370667 -0.000002 0.000000 0.000000 -0.000000 0.000008 0.000061 0.000002 0.000000 0.000000 -0.000001 -0.000002 0.000000 -0.000001 -0.000000 0.000000 -0.000001 11.315736 -0.000048 0.000015 -24.388695 -9.617757 -10.381682 0.000036 0.000058 -38.200275 0.664816 -0.646646 44.204353 0.000048 0.000008 -39.900864 4.330665 4.679600 10.589110 -0.000009 -15.261658 -0.000000 -0.045443 -1.185665 -26.032750 -0.000028 -7.539981 -0.000002 0.000001 -0.000000 0.000000 0.000000 0.000001 -0.000001 -0.000000 -0.000000 -0.000004 0.000027 0.000065 0.000001 -0.000000 -0.000000 -0.000000 
